# xmcd
#
# Track frame offsets: 
#        150
#        23095
#        43625
#        60152
#        80320
#        101077
#        119845
#        143917
#        161422
#        180655
#
# Disc length: 2687 seconds
#
# Revision: 0
# Processed by: cddbd v1.5.2PL0 Copyright (c) Steve Scherf et al.
# Submitted via: ExactAudioCopy v1.0b3
#
DISCID=7c0a7d0a
DTITLE=Various Artist - Xuan Magic Chachacha
DYEAR=1996
DGENRE=
TTITLE0=Nhu Mai, Quoc Si - Xuan da ve
TTITLE1=Tuan Vu - Don vang chieu Xuan
TTITLE2=Huong Lan - Xuan hop mat
TTITLE3=Tuong Lan - Chuc Xuan
TTITLE4=Nhu Mai - Khuc nhac ngay Xuan
TTITLE5=Nhu Mai - Canh buom vuon Xuan
TTITLE6=Tuan Vu - Mua Xuan quen nhau
TTITLE7=Huong Lan - Bai ca Xuan
TTITLE8=Nhu Thao - Gio mua Xuan toi
TTITLE9=Nhu Mai - Don Xuan
EXTD=
EXTT0=
EXTT1=
EXTT2=
EXTT3=
EXTT4=
EXTT5=
EXTT6=
EXTT7=
EXTT8=
EXTT9=
PLAYORDER=
